<mxfile host="65bd71144e">
    <diagram id="mYp9GOM-QvjV2WI2phD-" name="Page-1">
        <mxGraphModel dx="1058" dy="620" grid="1" gridSize="10" guides="1" tooltips="1" connect="1" arrows="1" fold="1" page="1" pageScale="1" pageWidth="1169" pageHeight="827" math="0" shadow="0">
            <root>
                <mxCell id="0"/>
                <mxCell id="1" parent="0"/>
                <mxCell id="14" style="edgeStyle=none;html=1;entryX=0;entryY=0;entryDx=0;entryDy=0;exitX=1;exitY=0.5;exitDx=0;exitDy=0;" edge="1" parent="1" source="3" target="55">
                    <mxGeometry relative="1" as="geometry">
                        <mxPoint x="325" y="400" as="targetPoint"/>
                        <Array as="points">
                            <mxPoint x="260" y="310"/>
                            <mxPoint x="260" y="410"/>
                        </Array>
                    </mxGeometry>
                </mxCell>
                <mxCell id="15" style="edgeStyle=none;html=1;exitX=1;exitY=0.5;exitDx=0;exitDy=0;entryX=0;entryY=0.5;entryDx=0;entryDy=0;" edge="1" parent="1" source="7" target="55">
                    <mxGeometry relative="1" as="geometry">
                        <mxPoint x="310" y="400" as="targetPoint"/>
                        <Array as="points">
                            <mxPoint x="250" y="390"/>
                            <mxPoint x="250" y="425"/>
                            <mxPoint x="280" y="425"/>
                        </Array>
                    </mxGeometry>
                </mxCell>
                <mxCell id="16" style="edgeStyle=none;html=1;exitX=1;exitY=0.5;exitDx=0;exitDy=0;entryX=0;entryY=1;entryDx=0;entryDy=0;" edge="1" parent="1" source="8" target="55">
                    <mxGeometry relative="1" as="geometry">
                        <mxPoint x="310" y="440" as="targetPoint"/>
                        <Array as="points">
                            <mxPoint x="260" y="470"/>
                            <mxPoint x="260" y="440"/>
                        </Array>
                    </mxGeometry>
                </mxCell>
                <mxCell id="9" value="Clients" style="swimlane;whiteSpace=wrap;html=1;" vertex="1" parent="1">
                    <mxGeometry x="40" y="240" width="200" height="290" as="geometry">
                        <mxRectangle x="40" y="240" width="80" height="30" as="alternateBounds"/>
                    </mxGeometry>
                </mxCell>
                <mxCell id="3" value="Scheduling Client 1" style="rounded=0;whiteSpace=wrap;html=1;" vertex="1" parent="9">
                    <mxGeometry x="40" y="40" width="120" height="60" as="geometry"/>
                </mxCell>
                <mxCell id="7" value="Scheduling Client 2" style="rounded=0;whiteSpace=wrap;html=1;" vertex="1" parent="9">
                    <mxGeometry x="40" y="120" width="120" height="60" as="geometry"/>
                </mxCell>
                <mxCell id="8" value="Scheduling Client n" style="rounded=0;whiteSpace=wrap;html=1;" vertex="1" parent="9">
                    <mxGeometry x="40" y="200" width="120" height="60" as="geometry"/>
                </mxCell>
                <mxCell id="18" style="edgeStyle=none;html=1;exitX=0.5;exitY=1;exitDx=0;exitDy=0;entryX=0.5;entryY=0;entryDx=0;entryDy=0;endArrow=none;endFill=0;dashed=1;dashPattern=1 4;" edge="1" parent="9" source="7" target="8">
                    <mxGeometry relative="1" as="geometry"/>
                </mxCell>
                <mxCell id="10" value="Central Booking Platform" style="swimlane;whiteSpace=wrap;html=1;" vertex="1" parent="1">
                    <mxGeometry x="300" y="240" width="170" height="300" as="geometry">
                        <mxRectangle x="265" y="240" width="170" height="30" as="alternateBounds"/>
                    </mxGeometry>
                </mxCell>
                <mxCell id="2" value="Scheduling Server" style="rounded=0;whiteSpace=wrap;html=1;" vertex="1" parent="10">
                    <mxGeometry x="25" y="120" width="120" height="60" as="geometry"/>
                </mxCell>
                <mxCell id="55" value="FHIR® API" style="rounded=1;whiteSpace=wrap;html=1;fillColor=#cdeb8b;strokeColor=#36393d;" vertex="1" parent="10">
                    <mxGeometry x="10" y="170" width="45" height="30" as="geometry"/>
                </mxCell>
                <mxCell id="62" style="edgeStyle=none;html=1;exitX=0.5;exitY=1;exitDx=0;exitDy=0;entryX=0.5;entryY=1;entryDx=0;entryDy=0;" edge="1" parent="10" target="53">
                    <mxGeometry relative="1" as="geometry">
                        <mxPoint x="90" y="180" as="sourcePoint"/>
                        <mxPoint x="568" y="300" as="targetPoint"/>
                        <Array as="points">
                            <mxPoint x="90" y="330"/>
                            <mxPoint x="423" y="330"/>
                        </Array>
                    </mxGeometry>
                </mxCell>
                <mxCell id="63" style="edgeStyle=none;html=1;exitX=0.5;exitY=1;exitDx=0;exitDy=0;entryX=0.5;entryY=1;entryDx=0;entryDy=0;" edge="1" parent="10" target="54">
                    <mxGeometry relative="1" as="geometry">
                        <mxPoint x="80" y="180" as="sourcePoint"/>
                        <mxPoint x="403" y="300" as="targetPoint"/>
                        <Array as="points">
                            <mxPoint x="80" y="340"/>
                            <mxPoint x="273" y="340"/>
                            <mxPoint x="583" y="340"/>
                        </Array>
                    </mxGeometry>
                </mxCell>
                <mxCell id="19" value="" style="endArrow=none;dashed=1;html=1;" edge="1" parent="1">
                    <mxGeometry width="50" height="50" relative="1" as="geometry">
                        <mxPoint x="500" y="629" as="sourcePoint"/>
                        <mxPoint x="500" y="199" as="targetPoint"/>
                    </mxGeometry>
                </mxCell>
                <mxCell id="48" style="edgeStyle=none;html=1;entryX=0.5;entryY=1;entryDx=0;entryDy=0;" edge="1" parent="1" source="2" target="47">
                    <mxGeometry relative="1" as="geometry">
                        <Array as="points">
                            <mxPoint x="570" y="390"/>
                        </Array>
                    </mxGeometry>
                </mxCell>
                <mxCell id="64" style="edgeStyle=none;html=1;entryX=0.5;entryY=1;entryDx=0;entryDy=0;" edge="1" parent="1" target="52">
                    <mxGeometry relative="1" as="geometry">
                        <mxPoint x="400" y="420" as="sourcePoint"/>
                        <Array as="points">
                            <mxPoint x="400" y="560"/>
                            <mxPoint x="573" y="560"/>
                        </Array>
                    </mxGeometry>
                </mxCell>
                <mxCell id="39" value="&lt;span style=&quot;color: rgb(0, 0, 0);&quot;&gt;Scheduling Servers&lt;/span&gt;" style="swimlane;whiteSpace=wrap;html=1;" vertex="1" parent="1">
                    <mxGeometry x="540" y="240" width="510" height="300" as="geometry"/>
                </mxCell>
                <mxCell id="43" style="edgeStyle=none;html=1;exitX=1;exitY=0.5;exitDx=0;exitDy=0;entryX=0;entryY=0.5;entryDx=0;entryDy=0;dashed=1;dashPattern=1 4;endArrow=none;endFill=0;" edge="1" parent="39">
                    <mxGeometry relative="1" as="geometry">
                        <mxPoint x="290" y="80" as="sourcePoint"/>
                        <mxPoint x="310" y="80" as="targetPoint"/>
                    </mxGeometry>
                </mxCell>
                <mxCell id="68" style="edgeStyle=none;html=1;exitX=0.5;exitY=1;exitDx=0;exitDy=0;entryX=0;entryY=1;entryDx=0;entryDy=0;" edge="1" parent="39" source="5" target="53">
                    <mxGeometry relative="1" as="geometry">
                        <Array as="points">
                            <mxPoint x="85" y="276"/>
                        </Array>
                    </mxGeometry>
                </mxCell>
                <mxCell id="28" style="edgeStyle=none;html=1;exitX=1;exitY=0.5;exitDx=0;exitDy=0;entryX=0;entryY=0.5;entryDx=0;entryDy=0;endArrow=none;endFill=0;dashed=1;dashPattern=1 4;" edge="1" parent="39" source="6" target="20">
                    <mxGeometry relative="1" as="geometry"/>
                </mxCell>
                <mxCell id="81" value="" style="group" vertex="1" connectable="0" parent="39">
                    <mxGeometry x="10" y="200" width="135" height="76" as="geometry"/>
                </mxCell>
                <mxCell id="5" value="Scheduling Server 1" style="rounded=0;whiteSpace=wrap;html=1;" vertex="1" parent="81">
                    <mxGeometry x="15" width="120" height="60" as="geometry"/>
                </mxCell>
                <mxCell id="52" value="FHIR® API" style="rounded=1;whiteSpace=wrap;html=1;fillColor=#cdeb8b;strokeColor=#36393d;" vertex="1" parent="81">
                    <mxGeometry y="46" width="45" height="30" as="geometry"/>
                </mxCell>
                <mxCell id="82" value="" style="group" vertex="1" connectable="0" parent="39">
                    <mxGeometry x="160" y="200" width="140" height="76" as="geometry"/>
                </mxCell>
                <mxCell id="6" value="Scheduling Server 2" style="rounded=0;whiteSpace=wrap;html=1;" vertex="1" parent="82">
                    <mxGeometry x="20" width="120" height="60" as="geometry"/>
                </mxCell>
                <mxCell id="53" value="FHIR® API" style="rounded=1;whiteSpace=wrap;html=1;fillColor=#cdeb8b;strokeColor=#36393d;" vertex="1" parent="82">
                    <mxGeometry y="46" width="45" height="30" as="geometry"/>
                </mxCell>
                <mxCell id="84" value="" style="group" vertex="1" connectable="0" parent="39">
                    <mxGeometry x="7.5" y="50" width="140" height="70" as="geometry"/>
                </mxCell>
                <mxCell id="4" value="Health Information System 1" style="rounded=0;whiteSpace=wrap;html=1;" vertex="1" parent="84">
                    <mxGeometry x="20" width="120" height="60" as="geometry"/>
                </mxCell>
                <mxCell id="47" value="FHIR® API" style="rounded=1;whiteSpace=wrap;html=1;fillColor=#cdeb8b;strokeColor=#36393d;" vertex="1" parent="84">
                    <mxGeometry y="40" width="45" height="30" as="geometry"/>
                </mxCell>
                <mxCell id="69" style="edgeStyle=none;html=1;entryX=0.885;entryY=1.02;entryDx=0;entryDy=0;entryPerimeter=0;exitX=0.05;exitY=-0.003;exitDx=0;exitDy=0;exitPerimeter=0;" edge="1" parent="39" source="6" target="47">
                    <mxGeometry relative="1" as="geometry">
                        <mxPoint x="180" y="200" as="sourcePoint"/>
                        <Array as="points">
                            <mxPoint x="186" y="180"/>
                            <mxPoint x="47" y="180"/>
                        </Array>
                    </mxGeometry>
                </mxCell>
                <mxCell id="85" value="" style="group" vertex="1" connectable="0" parent="39">
                    <mxGeometry x="160" y="50" width="140" height="70" as="geometry"/>
                </mxCell>
                <mxCell id="22" value="Health Information System 2" style="rounded=0;whiteSpace=wrap;html=1;" vertex="1" parent="85">
                    <mxGeometry x="20" width="120" height="60" as="geometry"/>
                </mxCell>
                <mxCell id="50" value="FHIR® API" style="rounded=1;whiteSpace=wrap;html=1;fillColor=#cdeb8b;strokeColor=#36393d;" vertex="1" parent="85">
                    <mxGeometry y="40" width="45" height="30" as="geometry"/>
                </mxCell>
                <mxCell id="67" style="edgeStyle=none;html=1;exitX=0.117;exitY=0.004;exitDx=0;exitDy=0;entryX=0.75;entryY=1;entryDx=0;entryDy=0;exitPerimeter=0;" edge="1" parent="39" source="6" target="50">
                    <mxGeometry relative="1" as="geometry"/>
                </mxCell>
                <mxCell id="86" value="" style="group" vertex="1" connectable="0" parent="39">
                    <mxGeometry x="330" y="50" width="160" height="70" as="geometry"/>
                </mxCell>
                <mxCell id="23" value="Health Information System n" style="rounded=0;whiteSpace=wrap;html=1;" vertex="1" parent="86">
                    <mxGeometry width="120" height="60" as="geometry"/>
                </mxCell>
                <mxCell id="51" value="Other API" style="rounded=1;whiteSpace=wrap;html=1;fillColor=#eeeeee;strokeColor=#36393d;" vertex="1" parent="86">
                    <mxGeometry x="90" y="40" width="70" height="30" as="geometry"/>
                </mxCell>
                <mxCell id="35" style="edgeStyle=none;html=1;exitX=1;exitY=0.5;exitDx=0;exitDy=0;entryX=0;entryY=0.5;entryDx=0;entryDy=0;dashed=1;dashPattern=1 4;endArrow=none;endFill=0;" edge="1" parent="39" source="22" target="23">
                    <mxGeometry relative="1" as="geometry"/>
                </mxCell>
                <mxCell id="65" style="edgeStyle=none;html=1;entryX=0.321;entryY=1.031;entryDx=0;entryDy=0;entryPerimeter=0;exitX=0.942;exitY=0.002;exitDx=0;exitDy=0;strokeColor=#C4C4C4;exitPerimeter=0;" edge="1" parent="39" source="20" target="51">
                    <mxGeometry relative="1" as="geometry">
                        <Array as="points"/>
                    </mxGeometry>
                </mxCell>
                <mxCell id="70" style="edgeStyle=none;html=1;entryX=0;entryY=1;entryDx=0;entryDy=0;exitX=0.952;exitY=-0.011;exitDx=0;exitDy=0;strokeColor=#C4C4C4;exitPerimeter=0;" edge="1" parent="39" source="6" target="51">
                    <mxGeometry relative="1" as="geometry">
                        <Array as="points">
                            <mxPoint x="294" y="180"/>
                            <mxPoint x="420" y="180"/>
                        </Array>
                    </mxGeometry>
                </mxCell>
                <mxCell id="83" value="" style="group" vertex="1" connectable="0" parent="39">
                    <mxGeometry x="320" y="200" width="130" height="76" as="geometry"/>
                </mxCell>
                <mxCell id="20" value="Scheduling Server n" style="rounded=0;whiteSpace=wrap;html=1;" vertex="1" parent="83">
                    <mxGeometry x="10" width="120" height="60" as="geometry"/>
                </mxCell>
                <mxCell id="54" value="FHIR® API" style="rounded=1;whiteSpace=wrap;html=1;fillColor=#cdeb8b;strokeColor=#36393d;" vertex="1" parent="83">
                    <mxGeometry y="46" width="45" height="30" as="geometry"/>
                </mxCell>
            </root>
        </mxGraphModel>
    </diagram>
</mxfile>